# xmcd
#
# Track frame offsets:
#	150
#	19395
#	36935
#	53206
#	73161
#	91575
#	108814
#	127249
#	149407
#	161259
#	177015
#	192310
#
# Disc length: 2790 seconds
#
# Revision: 1
# Processed by: cddbd v1.5.2PL0 Copyright (c) Steve Scherf et al.
# Submitted via: audiograbber 1.82.02
#
DISCID=a40ae40c
DTITLE=Penny Dale - Undaunted
DYEAR=2005
DGENRE=Country
TTITLE0=Cowboys and Angels
TTITLE1=Til the Day I Die
TTITLE2=Happy End
TTITLE3=Georgia Time
TTITLE4=Meet Me at the Beach
TTITLE5=Little Town
TTITLE6=Gypsy Cowgirl
TTITLE7=Pretty Lies
TTITLE8=Enough 2 Let U Go
TTITLE9=Its Me
TTITLE10=Born 2 Love U
TTITLE11=Love What U Got
EXTD=
EXTT0=
EXTT1=
EXTT2=
EXTT3=
EXTT4=
EXTT5=
EXTT6=
EXTT7=
EXTT8=
EXTT9=
EXTT10=
EXTT11=
PLAYORDER=
